<svg xmlns="http://www.w3.org/2000/svg" width="55" height="55" viewBox="0 0 55 55"><g transform="translate(-372 -888)"><circle cx="27.5" cy="27.5" r="27.5" transform="translate(372 888)" fill="#ffa101"/><path d="M9.167,13.75a4.583,4.583,0,1,1,4.583,4.584A4.583,4.583,0,0,1,9.167,13.75m-2.478,0a7.06,7.06,0,1,0,7.06-7.06,7.06,7.06,0,0,0-7.06,7.06M19.44,6.41A1.65,1.65,0,1,0,21.09,4.76,1.651,1.651,0,0,0,19.44,6.41M8.194,24.942a7.6,7.6,0,0,1-2.553-.473,4.277,4.277,0,0,1-1.582-1.028,4.25,4.25,0,0,1-1.028-1.58,7.6,7.6,0,0,1-.473-2.553c-.067-1.449-.08-1.885-.08-5.557s.014-4.106.08-5.557A7.631,7.631,0,0,1,3.031,5.64,4.277,4.277,0,0,1,4.059,4.058,4.245,4.245,0,0,1,5.641,3.03a7.6,7.6,0,0,1,2.553-.473c1.449-.067,1.885-.08,5.556-.08s4.106.014,5.557.08a7.631,7.631,0,0,1,2.553.473,4.263,4.263,0,0,1,1.582,1.028A4.268,4.268,0,0,1,24.47,5.64a7.6,7.6,0,0,1,.473,2.553c.067,1.451.08,1.885.08,5.557s-.013,4.106-.08,5.557a7.624,7.624,0,0,1-.473,2.553,4.552,4.552,0,0,1-2.61,2.609,7.6,7.6,0,0,1-2.553.473c-1.449.067-1.885.08-5.557.08s-4.106-.013-5.556-.08M8.081.083A10.086,10.086,0,0,0,4.744.722,6.747,6.747,0,0,0,2.308,2.308,6.728,6.728,0,0,0,.722,4.744,10.086,10.086,0,0,0,.083,8.081C.016,9.547,0,10.016,0,13.75s.016,4.2.083,5.669a10.086,10.086,0,0,0,.639,3.338,6.723,6.723,0,0,0,1.586,2.436,6.743,6.743,0,0,0,2.436,1.586,10.092,10.092,0,0,0,3.338.639c1.467.067,1.935.083,5.669.083s4.2-.016,5.669-.083a10.086,10.086,0,0,0,3.338-.639,7.031,7.031,0,0,0,4.022-4.022,10.057,10.057,0,0,0,.639-3.338c.067-1.467.082-1.935.082-5.669s-.016-4.2-.082-5.669a10.086,10.086,0,0,0-.639-3.338,6.762,6.762,0,0,0-1.586-2.436A6.743,6.743,0,0,0,22.757.722,10.069,10.069,0,0,0,19.42.083C17.954.017,17.485,0,13.751,0s-4.2.016-5.67.083" transform="translate(385.751 901.75)" fill="#ececec"/></g></svg>