<svg xmlns="http://www.w3.org/2000/svg" width="55" height="55" viewBox="0 0 55 55"><g transform="translate(-547 -888)"><circle cx="27.5" cy="27.5" r="27.5" transform="translate(547 888)" fill="#ffa101"/><path d="M33.846,5.256a14.467,14.467,0,0,1-4,1.1A6.9,6.9,0,0,0,32.9,2.516,13.866,13.866,0,0,1,28.5,4.2a6.938,6.938,0,0,0-12,4.745,7.145,7.145,0,0,0,.161,1.582,19.639,19.639,0,0,1-14.3-7.258,6.949,6.949,0,0,0,2.132,9.274,6.854,6.854,0,0,1-3.135-.855v.076a6.97,6.97,0,0,0,5.559,6.818,6.926,6.926,0,0,1-1.819.228,6.134,6.134,0,0,1-1.314-.118,7,7,0,0,0,6.484,4.834,13.94,13.94,0,0,1-8.6,2.959A13,13,0,0,1,0,26.386,19.533,19.533,0,0,0,10.645,29.5c12.768,0,19.749-10.577,19.749-19.745,0-.307-.011-.6-.025-.9A13.843,13.843,0,0,0,33.846,5.256Z" transform="translate(557.313 899.75)" fill="#ececec"/></g></svg>